<?xml version="1.0" standalone="no"?>
<!DOCTYPE svg PUBLIC "-//W3C//DTD SVG 20010904//EN"
 "http://www.w3.org/TR/2001/REC-SVG-20010904/DTD/svg10.dtd">
<svg version="1.0" xmlns="http://www.w3.org/2000/svg"
 width="920.000000pt" height="920.000000pt" viewBox="0 0 920.000000 920.000000"
 preserveAspectRatio="xMidYMid meet">

<g transform="translate(0.000000,920.000000) scale(0.100000,-0.100000)"
fill="#000000" stroke="none">
<path d="M6028 6275 c-96 -24 -187 -74 -263 -147 -119 -112 -182 -245 -192
-398 -16 -269 140 -509 395 -607 81 -31 243 -42 335 -23 161 33 335 169 409
320 145 296 31 650 -259 803 -38 20 -99 43 -134 52 -78 18 -214 18 -291 0z"/>
<path d="M2768 5920 c-102 -16 -181 -41 -275 -85 -208 -98 -379 -252 -539
-486 -141 -205 -163 -282 -100 -345 49 -49 92 -47 199 10 224 121 483 183 796
191 342 8 628 -49 876 -174 64 -33 125 -61 134 -62 44 -4 66 4 97 35 57 57 44
120 -57 282 -113 181 -272 355 -412 452 -103 71 -243 137 -347 162 -97 24
-284 34 -372 20z"/>
<path d="M1943 3544 c33 -458 315 -975 737 -1352 110 -99 293 -237 398 -302
l72 -45 1 -135 c0 -155 3 -188 30 -323 41 -203 104 -361 213 -528 218 -332
561 -539 986 -594 101 -13 386 -13 455 0 152 28 202 40 278 66 195 65 350 157
493 292 219 207 363 478 418 787 24 133 24 136 25 290 l1 145 80 49 c234 142
506 383 680 601 153 192 302 460 369 664 40 120 69 265 78 382 6 87 5 91 -13
85 -104 -32 -502 -109 -774 -150 -637 -97 -1239 -141 -1905 -141 -256 0 -683
11 -736 19 -13 3 -71 7 -129 11 -252 15 -656 60 -950 106 -262 41 -702 127
-794 155 -18 6 -19 2 -13 -82z m1694 -450 c-3 -3 -12 -4 -19 -1 -8 3 -5 6 6 6
11 1 17 -2 13 -5z m170 -20 c-3 -3 -12 -4 -19 -1 -8 3 -5 6 6 6 11 1 17 -2 13
-5z m1680 0 c-3 -3 -12 -4 -19 -1 -8 3 -5 6 6 6 11 1 17 -2 13 -5z m-1464 -21
c-7 -2 -19 -2 -25 0 -7 3 -2 5 12 5 14 0 19 -2 13 -5z m1254 1 c-3 -3 -12 -4
-19 -1 -8 3 -5 6 6 6 11 1 17 -2 13 -5z m-1104 -11 c-7 -2 -21 -2 -30 0 -10 3
-4 5 12 5 17 0 24 -2 18 -5z m974 1 c-3 -3 -12 -4 -19 -1 -8 3 -5 6 6 6 11 1
17 -2 13 -5z m-784 -11 c-7 -2 -21 -2 -30 0 -10 3 -4 5 12 5 17 0 24 -2 18 -5z
m600 0 c-7 -2 -21 -2 -30 0 -10 3 -4 5 12 5 17 0 24 -2 18 -5z"/>
</g>
</svg>
